<svg width="20" height="20" viewBox="0 0 20 20" fill="none" xmlns="http://www.w3.org/2000/svg">
<path fill-rule="evenodd" clip-rule="evenodd" d="M14.4108 13.2889L19.5121 18.4482C19.8631 18.803 19.8631 19.3789 19.5121 19.7336C19.3366 19.9111 19.1065 20 18.8764 20C18.6465 20 18.4164 19.9111 18.2409 19.7336L13.1396 14.5743C11.7555 15.6941 10 16.3636 8.08989 16.3636C3.62202 16.3636 0 12.7005 0 8.18182C0 3.66318 3.62202 0 8.08989 0C12.558 0 16.1798 3.66318 16.1798 8.18182C16.1798 10.1136 15.518 11.8891 14.4108 13.2889ZM1.79775 8.18182C1.79775 11.6964 4.61483 14.5455 8.08989 14.5455C11.5652 14.5455 14.382 11.6964 14.382 8.18182C14.382 4.66727 11.5652 1.81818 8.08989 1.81818C4.61483 1.81818 1.79775 4.66727 1.79775 8.18182Z" fill="white"/>
</svg>
