<?xml version="1.0" encoding="utf-8"?><svg width="20" height="20" fill="none" xmlns="http://www.w3.org/2000/svg" viewBox="0 0 20 20"><path fill-rule="evenodd" clip-rule="evenodd" d="M14.41 13.289l5.102 5.16a.916.916 0 010 1.285.891.891 0 01-1.271 0l-5.101-5.16a8 8 0 01-5.05 1.79C3.622 16.364 0 12.7 0 8.182 0 3.663 3.622 0 8.09 0s8.09 3.663 8.09 8.182a8.205 8.205 0 01-1.77 5.107zM1.799 8.182c0 3.514 2.817 6.364 6.292 6.364 3.475 0 6.292-2.85 6.292-6.364 0-3.515-2.817-6.364-6.292-6.364-3.475 0-6.292 2.85-6.292 6.364z" fill="#fff"/></svg>