<?xml version="1.0" encoding="utf-8"?><svg viewBox="0 0 1103 20" xmlns="http://www.w3.org/2000/svg" xmlns:xlink="http://www.w3.org/1999/xlink"><style>:root>svg{display:none}:root>svg:target{display:block}</style><svg fill="none" viewBox="0 0 9 9" id="cancel" xmlns="http://www.w3.org/2000/svg"><rect x="8.182" width="1.157" height="11.571" rx=".579" transform="rotate(45 8.182 0)" fill="#D8D8D8"/><rect x="8.182" y=".409" width=".579" height="10.992" rx=".289" transform="rotate(45 8.182 .41)" stroke="#2A3246" stroke-opacity=".5" stroke-width=".579"/><rect width="1.157" height="11.571" rx=".579" transform="scale(-1 1) rotate(45 -.41 -.988)" fill="#D8D8D8"/><rect y=".409" width=".579" height="10.992" rx=".289" transform="scale(-1 1) rotate(45 -.41 -.579)" stroke="#2A3246" stroke-opacity=".5" stroke-width=".579"/></svg><svg fill="none" viewBox="0 0 1103 1" id="line-head" xmlns="http://www.w3.org/2000/svg"><path d="M0 .5h1103" stroke="#2A3246" stroke-opacity=".1"/></svg><svg fill="none" viewBox="0 0 20 20" id="search" xmlns="http://www.w3.org/2000/svg"><path fill-rule="evenodd" clip-rule="evenodd" d="M14.41 13.289l5.102 5.16a.916.916 0 010 1.285.891.891 0 01-1.271 0l-5.101-5.16a8 8 0 01-5.05 1.79C3.622 16.364 0 12.7 0 8.182 0 3.663 3.622 0 8.09 0s8.09 3.663 8.09 8.182a8.205 8.205 0 01-1.77 5.107zM1.799 8.182c0 3.514 2.817 6.364 6.292 6.364 3.475 0 6.292-2.85 6.292-6.364 0-3.515-2.817-6.364-6.292-6.364-3.475 0-6.292 2.85-6.292 6.364z" fill="#fff"/></svg></svg>